<svg width="177" height="96" viewBox="0 0 177 96" fill="none" xmlns="http://www.w3.org/2000/svg">
    <mask id="path-1-inside-1_0_1" fill="white">
        <path
            d="M6.5579 90.851C2.94877 90.9333 -0.0684915 88.0702 0.116519 84.4648C0.721178 72.6818 3.67269 61.1181 8.81975 50.4707C14.9157 37.8603 23.9149 26.9007 35.0671 18.5053C46.2193 10.1098 59.2016 4.52176 72.9319 2.20684C84.5053 0.255589 96.3275 0.677517 107.696 3.42146C111.217 4.27145 113.113 7.98789 112.015 11.4402C110.91 14.914 107.195 16.7971 103.64 15.9917C94.2843 13.8723 84.588 13.5938 75.0889 15.1953C63.4131 17.1638 52.3734 21.9157 42.8899 29.055C33.4064 36.1942 25.7538 45.5139 20.57 56.2373C16.3348 64.9985 13.8476 74.4894 13.2252 84.1727C12.9938 87.7736 10.1653 90.7688 6.5579 90.851Z" />
    </mask>
    <path
        d="M6.5579 90.851C2.94877 90.9333 -0.0684915 88.0702 0.116519 84.4648C0.721178 72.6818 3.67269 61.1181 8.81975 50.4707C14.9157 37.8603 23.9149 26.9007 35.0671 18.5053C46.2193 10.1098 59.2016 4.52176 72.9319 2.20684C84.5053 0.255589 96.3275 0.677517 107.696 3.42146C111.217 4.27145 113.113 7.98789 112.015 11.4402C110.91 14.914 107.195 16.7971 103.64 15.9917C94.2843 13.8723 84.588 13.5938 75.0889 15.1953C63.4131 17.1638 52.3734 21.9157 42.8899 29.055C33.4064 36.1942 25.7538 45.5139 20.57 56.2373C16.3348 64.9985 13.8476 74.4894 13.2252 84.1727C12.9938 87.7736 10.1653 90.7688 6.5579 90.851Z"
        fill="#002F6B" />
    <path
        d="M8.81975 50.4707L35.8294 63.5275L8.81975 50.4707ZM75.0889 15.1953L80.0765 44.7778L75.0889 15.1953ZM13.2252 84.1727L43.1635 86.097L13.2252 84.1727ZM107.696 3.42146L100.657 32.584L107.696 3.42146ZM103.64 15.9917L110.268 -13.2669L103.64 15.9917ZM30.0771 86.0023C30.4773 78.2041 32.4306 70.5584 35.8294 63.5275L-18.1899 37.4139C-25.0852 51.6778 -29.0349 67.1596 -29.8441 82.9274L30.0771 86.0023ZM35.8294 63.5275C39.8547 55.2005 45.7859 47.9866 53.1101 42.473L17.0241 -5.46246C2.04383 5.81477 -10.0232 20.5201 -18.1899 37.4139L35.8294 63.5275ZM53.1101 42.473C60.4331 36.9602 68.9403 33.3032 77.9195 31.7893L67.9443 -27.3757C49.4629 -24.2597 32.0056 -16.7405 17.0241 -5.46246L53.1101 42.473ZM77.9195 31.7893C85.4883 30.5132 93.2196 30.7889 100.657 32.584L114.735 -25.7411C99.4354 -29.4338 83.5222 -30.0021 67.9443 -27.3757L77.9195 31.7893ZM110.268 -13.2669C97.1075 -16.2483 83.4655 -16.6404 70.1013 -14.3872L80.0765 44.7778C85.7106 43.8279 91.461 43.9929 97.0122 45.2504L110.268 -13.2669ZM70.1013 -14.3872C53.6744 -11.6176 38.1596 -4.9346 24.847 5.08724L60.9329 53.0227C66.5872 48.7661 73.1518 45.9453 80.0765 44.7778L70.1013 -14.3872ZM24.847 5.08724C11.5354 15.1082 0.814875 28.1737 -6.43964 43.1806L47.5797 69.2941C50.6928 62.8541 55.2775 57.2801 60.9329 53.0227L24.847 5.08724ZM-6.43964 43.1806C-12.3666 55.4413 -15.843 68.7139 -16.713 82.2485L43.1635 86.097C43.5383 80.2648 45.0361 74.5557 47.5797 69.2941L-6.43964 43.1806ZM-16.713 82.2485C-16.0524 71.9716 -7.67134 61.1676 5.87424 60.8588L7.24156 120.843C28.0019 120.37 42.04 103.576 43.1635 86.097L-16.713 82.2485ZM100.657 32.584C85.7897 28.9955 79.7168 14.0112 83.4255 2.34872L140.604 20.5317C146.508 1.96459 136.645 -20.4527 114.735 -25.7411L100.657 32.584ZM83.4255 2.34872C87.5428 -10.5988 100.295 -15.5263 110.268 -13.2669L97.0122 45.2504C114.096 49.1204 134.277 40.4268 140.604 20.5317L83.4255 2.34872ZM-29.8441 82.9274C-30.9987 105.428 -12.2941 121.289 7.24156 120.843L5.87424 60.8588C18.1917 60.578 30.8617 70.7124 30.0771 86.0023L-29.8441 82.9274Z"
        fill="#002F6B" mask="url(#path-1-inside-1_0_1)" />
    <mask id="path-3-inside-2_0_1" fill="white">
        <path
            d="M111.65 10.527C112.588 6.93964 116.294 4.79172 119.775 6.0705C135.417 11.8181 149.167 22.1378 159.308 35.8415C169.55 49.6802 175.602 66.2816 176.785 83.5642C177.028 87.1126 174.116 89.9946 170.56 89.988C167.003 89.9813 164.154 87.0884 163.867 83.5438C162.706 69.1928 157.596 55.4331 149.076 43.9213C140.613 32.4855 129.195 23.8209 116.201 18.8825C112.814 17.5954 110.735 14.0326 111.65 10.527Z" />
    </mask>
    <path
        d="M111.65 10.527C112.588 6.93964 116.294 4.79172 119.775 6.0705C135.417 11.8181 149.167 22.1378 159.308 35.8415C169.55 49.6802 175.602 66.2816 176.785 83.5642C177.028 87.1126 174.116 89.9946 170.56 89.988C167.003 89.9813 164.154 87.0884 163.867 83.5438C162.706 69.1928 157.596 55.4331 149.076 43.9213C140.613 32.4855 129.195 23.8209 116.201 18.8825C112.814 17.5954 110.735 14.0326 111.65 10.527Z"
        fill="#002F6B" />
    <path
        d="M159.308 35.8415L135.193 53.6875L159.308 35.8415ZM163.867 83.5438L193.769 81.1254L163.867 83.5438ZM116.201 18.8825L105.544 46.9257L116.201 18.8825ZM119.775 6.0705L109.428 34.2298L119.775 6.0705ZM109.428 34.2298C119.49 37.9267 128.483 44.62 135.193 53.6875L183.423 17.9955C169.851 -0.344279 151.345 -14.2905 130.121 -22.0888L109.428 34.2298ZM135.193 53.6875C141.978 62.8549 146.057 73.9579 146.856 85.6138L206.715 81.5146C205.146 58.6053 197.121 36.5056 183.423 17.9955L135.193 53.6875ZM193.769 81.1254C192.164 61.2782 185.092 42.1572 173.191 26.0753L124.962 61.7674C130.099 68.7089 133.248 77.1075 133.964 85.9622L193.769 81.1254ZM173.191 26.0753C161.361 10.0898 145.301 -2.15198 126.858 -9.16066L105.544 46.9257C113.09 49.7938 119.866 54.8812 124.962 61.7674L173.191 26.0753ZM170.616 59.988C184.196 60.0134 192.925 70.6815 193.769 81.1254L133.964 85.9622C135.383 103.495 149.811 119.949 170.504 119.988L170.616 59.988ZM146.856 85.6138C145.814 70.4077 158.208 59.9649 170.616 59.988L170.504 119.988C190.025 120.024 208.243 103.818 206.715 81.5146L146.856 85.6138ZM126.858 -9.16066C136.177 -5.61932 144.055 5.17702 140.676 18.1105L82.6248 2.94359C77.414 22.8881 89.4514 40.8101 105.544 46.9257L126.858 -9.16066ZM130.121 -22.0888C108.495 -30.0351 87.6191 -16.172 82.6248 2.94359L140.676 18.1105C137.556 30.0513 124.094 39.6185 109.428 34.2298L130.121 -22.0888Z"
        fill="#E6F1FF" mask="url(#path-3-inside-2_0_1)" />
    <g filter="url(#filter0_d_0_1)">
        <circle cx="110.5" cy="11.5" r="11.5" fill="#002F6B" />
        <circle cx="110.5" cy="11.5" r="9" stroke="white" stroke-width="5" />
    </g>
    <path
        d="M58.1103 50.408C59.3023 50.408 60.3663 50.596 61.3023 50.972C62.2463 51.348 62.9903 51.9 63.5343 52.628C64.0783 53.348 64.3503 54.236 64.3503 55.292C64.3503 56.18 64.1063 56.936 63.6183 57.56C63.1303 58.184 62.5303 58.664 61.8183 59C62.3463 59.112 62.8623 59.376 63.3663 59.792C63.8783 60.2 64.2983 60.704 64.6263 61.304C64.9543 61.896 65.1183 62.524 65.1183 63.188C65.1183 64.22 64.8263 65.116 64.2423 65.876C63.6663 66.636 62.8503 67.224 61.7943 67.64C60.7463 68.048 59.5183 68.252 58.1103 68.252C56.7183 68.252 55.4983 68.048 54.4503 67.64C53.4023 67.224 52.5863 66.636 52.0023 65.876C51.4183 65.116 51.1263 64.22 51.1263 63.188C51.1263 62.524 51.2903 61.896 51.6183 61.304C51.9463 60.704 52.3623 60.2 52.8663 59.792C53.3703 59.376 53.8903 59.112 54.4263 59C53.7143 58.664 53.1103 58.184 52.6143 57.56C52.1183 56.936 51.8703 56.18 51.8703 55.292C51.8703 54.236 52.1423 53.348 52.6863 52.628C53.2383 51.9 53.9863 51.348 54.9303 50.972C55.8743 50.596 56.9343 50.408 58.1103 50.408ZM58.1103 57.644C58.9103 57.644 59.5663 57.432 60.0783 57.008C60.5983 56.576 60.8583 55.98 60.8583 55.22C60.8583 54.468 60.5983 53.872 60.0783 53.432C59.5583 52.992 58.9023 52.772 58.1103 52.772C57.3263 52.772 56.6743 52.992 56.1543 53.432C55.6343 53.872 55.3743 54.468 55.3743 55.22C55.3743 55.98 55.6343 56.576 56.1543 57.008C56.6743 57.432 57.3263 57.644 58.1103 57.644ZM58.1103 65.612C59.1343 65.612 59.9343 65.384 60.5103 64.928C61.0943 64.464 61.3863 63.852 61.3863 63.092C61.3863 62.58 61.2543 62.132 60.9903 61.748C60.7263 61.356 60.3503 61.048 59.8623 60.824C59.3743 60.6 58.7903 60.488 58.1103 60.488C57.4463 60.488 56.8703 60.6 56.3823 60.824C55.8943 61.048 55.5183 61.356 55.2543 61.748C54.9903 62.132 54.8583 62.58 54.8583 63.092C54.8583 63.852 55.1503 64.464 55.7343 64.928C56.3183 65.384 57.1103 65.612 58.1103 65.612ZM74.1416 50.408C75.3336 50.408 76.3976 50.596 77.3336 50.972C78.2776 51.348 79.0216 51.9 79.5656 52.628C80.1096 53.348 80.3816 54.236 80.3816 55.292C80.3816 56.18 80.1376 56.936 79.6496 57.56C79.1616 58.184 78.5616 58.664 77.8496 59C78.3776 59.112 78.8936 59.376 79.3976 59.792C79.9096 60.2 80.3296 60.704 80.6576 61.304C80.9856 61.896 81.1496 62.524 81.1496 63.188C81.1496 64.22 80.8576 65.116 80.2736 65.876C79.6976 66.636 78.8816 67.224 77.8256 67.64C76.7776 68.048 75.5496 68.252 74.1416 68.252C72.7496 68.252 71.5296 68.048 70.4816 67.64C69.4336 67.224 68.6176 66.636 68.0336 65.876C67.4496 65.116 67.1576 64.22 67.1576 63.188C67.1576 62.524 67.3216 61.896 67.6496 61.304C67.9776 60.704 68.3936 60.2 68.8976 59.792C69.4016 59.376 69.9216 59.112 70.4576 59C69.7456 58.664 69.1416 58.184 68.6456 57.56C68.1496 56.936 67.9016 56.18 67.9016 55.292C67.9016 54.236 68.1736 53.348 68.7176 52.628C69.2696 51.9 70.0176 51.348 70.9616 50.972C71.9056 50.596 72.9656 50.408 74.1416 50.408ZM74.1416 57.644C74.9416 57.644 75.5976 57.432 76.1096 57.008C76.6296 56.576 76.8896 55.98 76.8896 55.22C76.8896 54.468 76.6296 53.872 76.1096 53.432C75.5896 52.992 74.9336 52.772 74.1416 52.772C73.3576 52.772 72.7056 52.992 72.1856 53.432C71.6656 53.872 71.4056 54.468 71.4056 55.22C71.4056 55.98 71.6656 56.576 72.1856 57.008C72.7056 57.432 73.3576 57.644 74.1416 57.644ZM74.1416 65.612C75.1656 65.612 75.9656 65.384 76.5416 64.928C77.1256 64.464 77.4176 63.852 77.4176 63.092C77.4176 62.58 77.2856 62.132 77.0216 61.748C76.7576 61.356 76.3816 61.048 75.8936 60.824C75.4056 60.6 74.8216 60.488 74.1416 60.488C73.4776 60.488 72.9016 60.6 72.4136 60.824C71.9256 61.048 71.5496 61.356 71.2856 61.748C71.0216 62.132 70.8896 62.58 70.8896 63.092C70.8896 63.852 71.1816 64.464 71.7656 64.928C72.3496 65.384 73.1416 65.612 74.1416 65.612ZM96.2531 68.24C94.6611 68.24 93.2771 67.88 92.1011 67.16C90.9331 66.432 90.0291 65.404 89.3891 64.076C88.7571 62.748 88.4411 61.18 88.4411 59.372C88.4411 57.532 88.7731 55.944 89.4371 54.608C90.1091 53.264 91.0451 52.228 92.2451 51.5C93.4451 50.772 94.8451 50.408 96.4451 50.408C97.4771 50.408 98.4171 50.572 99.2651 50.9C100.113 51.228 100.849 51.676 101.473 52.244C102.105 52.812 102.597 53.456 102.949 54.176C103.309 54.888 103.505 55.628 103.537 56.396H99.8411C99.7371 55.844 99.5291 55.34 99.2171 54.884C98.9131 54.428 98.5211 54.064 98.0411 53.792C97.5611 53.512 97.0011 53.372 96.3611 53.372C95.5931 53.372 94.8971 53.572 94.2731 53.972C93.6491 54.364 93.1571 54.992 92.7971 55.856C92.4371 56.72 92.2571 57.86 92.2571 59.276C92.2571 60.42 92.3731 61.372 92.6051 62.132C92.8451 62.892 93.1651 63.496 93.5651 63.944C93.9651 64.384 94.4211 64.696 94.9331 64.88C95.4451 65.064 95.9691 65.156 96.5051 65.156C97.0171 65.156 97.4731 65.072 97.8731 64.904C98.2811 64.728 98.6291 64.504 98.9171 64.232C99.2051 63.96 99.4331 63.664 99.6011 63.344C99.7691 63.016 99.8771 62.696 99.9251 62.384L100.057 61.328H96.4691V58.904L103.729 58.94V68H101.341V65.732C101.045 66.124 100.677 66.516 100.237 66.908C99.8051 67.292 99.2651 67.612 98.6171 67.868C97.9771 68.116 97.1891 68.24 96.2531 68.24ZM107.444 68V50.648H113.732C116.004 50.648 117.688 51.04 118.784 51.824C119.888 52.6 120.44 53.724 120.44 55.196C120.44 56.06 120.22 56.812 119.78 57.452C119.34 58.084 118.556 58.636 117.428 59.108C118.156 59.292 118.744 59.54 119.192 59.852C119.64 60.164 119.984 60.512 120.224 60.896C120.464 61.272 120.628 61.668 120.716 62.084C120.804 62.492 120.848 62.896 120.848 63.296C120.848 64.896 120.304 66.08 119.216 66.848C118.128 67.616 116.396 68 114.02 68H107.444ZM110.936 65.288H114.092C115.148 65.288 115.944 65.076 116.48 64.652C117.024 64.228 117.296 63.66 117.296 62.948C117.296 62.436 117.164 62.008 116.9 61.664C116.636 61.312 116.276 61.048 115.82 60.872C115.372 60.696 114.86 60.608 114.284 60.608H110.936V65.288ZM110.936 57.824H114.284C114.644 57.824 114.988 57.784 115.316 57.704C115.652 57.616 115.948 57.484 116.204 57.308C116.468 57.132 116.676 56.908 116.828 56.636C116.98 56.356 117.056 56.028 117.056 55.652C117.056 54.9 116.772 54.332 116.204 53.948C115.644 53.556 114.924 53.36 114.044 53.36H110.936V57.824Z"
        fill="#011627" />
    <path
        d="M28.4316 94.14C27.7549 94.14 27.1622 93.9953 26.6536 93.706C26.1496 93.412 25.7576 92.9873 25.4776 92.432C25.2022 91.8767 25.0646 91.2047 25.0646 90.416C25.0646 89.6553 25.1952 88.9903 25.4566 88.421C25.7226 87.8517 26.1076 87.4107 26.6116 87.098C27.1156 86.7807 27.7246 86.622 28.4386 86.622C29.1199 86.622 29.7102 86.7713 30.2096 87.07C30.7089 87.364 31.0962 87.7957 31.3716 88.365C31.6469 88.9297 31.7846 89.6133 31.7846 90.416C31.7846 91.1487 31.6539 91.795 31.3926 92.355C31.1359 92.915 30.7579 93.3537 30.2586 93.671C29.7639 93.9837 29.1549 94.14 28.4316 94.14ZM28.4386 92.985C28.8492 92.985 29.1922 92.8777 29.4676 92.663C29.7476 92.4437 29.9576 92.138 30.0976 91.746C30.2376 91.3493 30.3076 90.892 30.3076 90.374C30.3076 89.8933 30.2446 89.457 30.1186 89.065C29.9972 88.6683 29.7989 88.3533 29.5236 88.12C29.2482 87.8867 28.8866 87.77 28.4386 87.77C28.0186 87.77 27.6686 87.8773 27.3886 88.092C27.1086 88.302 26.8962 88.603 26.7516 88.995C26.6116 89.3823 26.5416 89.842 26.5416 90.374C26.5416 90.8453 26.6046 91.2793 26.7306 91.676C26.8566 92.0727 27.0596 92.39 27.3396 92.628C27.6196 92.866 27.9859 92.985 28.4386 92.985ZM35.9445 94.14C35.5805 94.1353 35.2329 94.0817 34.9015 93.979C34.5702 93.8763 34.2739 93.7223 34.0125 93.517C33.7559 93.3117 33.5505 93.0573 33.3965 92.754C33.2472 92.4507 33.1725 92.0983 33.1725 91.697V86.762H34.6775V91.536C34.6775 91.97 34.8129 92.3223 35.0835 92.593C35.3542 92.8637 35.7625 92.999 36.3085 92.999C36.8032 92.999 37.1999 92.8707 37.4985 92.614C37.7972 92.3527 37.9465 91.9723 37.9465 91.473V86.762H39.4375V94H38.2755L38.1075 92.6C38.0235 92.978 37.8719 93.2813 37.6525 93.51C37.4379 93.734 37.1812 93.8973 36.8825 94C36.5885 94.098 36.2759 94.1447 35.9445 94.14ZM45.3126 87.84H43.6886L43.6956 92.159C43.6956 92.397 43.7189 92.572 43.7656 92.684C43.8169 92.7913 43.9009 92.8613 44.0176 92.894C44.1389 92.922 44.3023 92.936 44.5076 92.936H45.3546V93.909C45.2613 93.9463 45.1213 93.979 44.9346 94.007C44.7526 94.035 44.5169 94.049 44.2276 94.049C43.6909 94.049 43.2733 93.9767 42.9746 93.832C42.6806 93.6873 42.4753 93.4797 42.3586 93.209C42.2466 92.9337 42.1906 92.6023 42.1906 92.215V87.84H41.0146V86.762H42.2326L42.6036 84.634H43.6886V86.755H45.3126V87.84ZM53.0273 94.14C52.3506 94.14 51.7579 93.9953 51.2493 93.706C50.7453 93.412 50.3533 92.9873 50.0733 92.432C49.7979 91.8767 49.6603 91.2047 49.6603 90.416C49.6603 89.6553 49.7909 88.9903 50.0523 88.421C50.3183 87.8517 50.7033 87.4107 51.2073 87.098C51.7113 86.7807 52.3203 86.622 53.0343 86.622C53.7156 86.622 54.3059 86.7713 54.8053 87.07C55.3046 87.364 55.6919 87.7957 55.9673 88.365C56.2426 88.9297 56.3803 89.6133 56.3803 90.416C56.3803 91.1487 56.2496 91.795 55.9883 92.355C55.7316 92.915 55.3536 93.3537 54.8543 93.671C54.3596 93.9837 53.7506 94.14 53.0273 94.14ZM53.0343 92.985C53.4449 92.985 53.7879 92.8777 54.0633 92.663C54.3433 92.4437 54.5533 92.138 54.6933 91.746C54.8333 91.3493 54.9033 90.892 54.9033 90.374C54.9033 89.8933 54.8403 89.457 54.7143 89.065C54.5929 88.6683 54.3946 88.3533 54.1193 88.12C53.8439 87.8867 53.4823 87.77 53.0343 87.77C52.6143 87.77 52.2643 87.8773 51.9843 88.092C51.7043 88.302 51.4919 88.603 51.3473 88.995C51.2073 89.3823 51.1373 89.842 51.1373 90.374C51.1373 90.8453 51.2003 91.2793 51.3263 91.676C51.4523 92.0727 51.6553 92.39 51.9353 92.628C52.2153 92.866 52.5816 92.985 53.0343 92.985ZM61.9088 86.762V87.84H60.2148V94H58.7098V87.84H57.2328V86.762H58.7098V85.663C58.7098 85.0843 58.8638 84.6433 59.1718 84.34C59.4798 84.032 59.9325 83.878 60.5298 83.878H61.9718L61.9788 84.914H60.9358C60.6465 84.914 60.4482 84.991 60.3408 85.145C60.2382 85.2943 60.1868 85.5253 60.1868 85.838V86.762H61.9088ZM68.0882 94V86.076H66.1702V85.145C66.7675 85.145 67.2365 85.0983 67.5772 85.005C67.9225 84.907 68.1699 84.7647 68.3192 84.578C68.4732 84.3867 68.5595 84.1533 68.5782 83.878H69.6212V94H68.0882ZM75.6567 83.738C76.7814 83.738 77.6751 84.1813 78.3377 85.068C79.0051 85.95 79.3387 87.2473 79.3387 88.96C79.3387 90.6633 79.0074 91.956 78.3447 92.838C77.6867 93.7153 76.7884 94.154 75.6497 94.154C74.5064 94.154 73.6057 93.7177 72.9477 92.845C72.2897 91.9677 71.9607 90.6773 71.9607 88.974C71.9607 87.8307 72.1124 86.8717 72.4157 86.097C72.7191 85.3177 73.1461 84.7297 73.6967 84.333C74.2521 83.9363 74.9054 83.738 75.6567 83.738ZM75.6567 92.88C76.3474 92.88 76.8654 92.5767 77.2107 91.97C77.5561 91.3587 77.7287 90.3577 77.7287 88.967C77.7287 87.5483 77.5537 86.5287 77.2037 85.908C76.8537 85.2827 76.3357 84.97 75.6497 84.97C74.9684 84.97 74.4481 85.285 74.0887 85.915C73.7294 86.5403 73.5497 87.5577 73.5497 88.967C73.5497 90.353 73.7271 91.3517 74.0817 91.963C74.4411 92.5743 74.9661 92.88 75.6567 92.88ZM84.27 83.738C85.3947 83.738 86.2883 84.1813 86.951 85.068C87.6183 85.95 87.952 87.2473 87.952 88.96C87.952 90.6633 87.6207 91.956 86.958 92.838C86.3 93.7153 85.4017 94.154 84.263 94.154C83.1197 94.154 82.219 93.7177 81.561 92.845C80.903 91.9677 80.574 90.6773 80.574 88.974C80.574 87.8307 80.7257 86.8717 81.029 86.097C81.3323 85.3177 81.7593 84.7297 82.31 84.333C82.8653 83.9363 83.5187 83.738 84.27 83.738ZM84.27 92.88C84.9607 92.88 85.4787 92.5767 85.824 91.97C86.1693 91.3587 86.342 90.3577 86.342 88.967C86.342 87.5483 86.167 86.5287 85.817 85.908C85.467 85.2827 84.949 84.97 84.263 84.97C83.5817 84.97 83.0613 85.285 82.702 85.915C82.3427 86.5403 82.163 87.5577 82.163 88.967C82.163 90.353 82.3403 91.3517 82.695 91.963C83.0543 92.5743 83.5793 92.88 84.27 92.88ZM96.8725 94.14C95.9719 94.14 95.1949 93.9347 94.5415 93.524C93.8882 93.1133 93.3842 92.523 93.0295 91.753C92.6795 90.9783 92.5045 90.0497 92.5045 88.967C92.5045 87.875 92.6842 86.9393 93.0435 86.16C93.4075 85.376 93.9232 84.7763 94.5905 84.361C95.2579 83.9457 96.0419 83.738 96.9425 83.738C97.4792 83.738 97.9762 83.829 98.4335 84.011C98.8955 84.193 99.3015 84.4403 99.6515 84.753C100.006 85.0657 100.286 85.4203 100.492 85.817C100.697 86.2137 100.814 86.629 100.842 87.063H99.2455C99.1802 86.7037 99.0402 86.3723 98.8255 86.069C98.6155 85.761 98.3472 85.5137 98.0205 85.327C97.6939 85.1403 97.3252 85.047 96.9145 85.047C96.3685 85.047 95.8855 85.1823 95.4655 85.453C95.0455 85.7237 94.7165 86.146 94.4785 86.72C94.2452 87.2893 94.1285 88.0267 94.1285 88.932C94.1285 89.6367 94.2009 90.2363 94.3455 90.731C94.4949 91.2257 94.6979 91.6247 94.9545 91.928C95.2112 92.2313 95.5122 92.453 95.8575 92.593C96.2029 92.7283 96.5715 92.796 96.9635 92.796C97.3509 92.796 97.6915 92.7283 97.9855 92.593C98.2795 92.4577 98.5245 92.2827 98.7205 92.068C98.9212 91.8533 99.0752 91.6223 99.1825 91.375C99.2945 91.123 99.3599 90.8803 99.3785 90.647L99.4275 89.828H97.0615V88.75L100.989 88.764V94H99.9035V92.516C99.7262 92.7913 99.5045 93.0527 99.2385 93.3C98.9725 93.5473 98.6459 93.7503 98.2585 93.909C97.8712 94.063 97.4092 94.14 96.8725 94.14ZM103.414 94V83.878H106.781C108.036 83.878 108.981 84.1043 109.616 84.557C110.255 85.0097 110.575 85.663 110.575 86.517C110.575 87.0443 110.437 87.4993 110.162 87.882C109.891 88.26 109.415 88.5773 108.734 88.834C109.135 88.9227 109.471 89.051 109.742 89.219C110.012 89.3823 110.225 89.5713 110.379 89.786C110.537 90.0007 110.649 90.234 110.715 90.486C110.785 90.738 110.82 90.9993 110.82 91.27C110.82 92.1893 110.495 92.8753 109.847 93.328C109.203 93.776 108.22 94 106.9 94H103.414ZM104.912 92.782H106.907C107.691 92.782 108.286 92.649 108.692 92.383C109.098 92.1123 109.301 91.7087 109.301 91.172C109.301 90.7847 109.2 90.4673 109 90.22C108.799 89.9727 108.528 89.7907 108.188 89.674C107.847 89.5573 107.467 89.499 107.047 89.499H104.912V92.782ZM104.912 88.26H107.047C107.299 88.26 107.546 88.2343 107.789 88.183C108.031 88.1317 108.253 88.0477 108.454 87.931C108.654 87.8097 108.815 87.6487 108.937 87.448C109.058 87.2473 109.119 87.0023 109.119 86.713C109.119 86.1623 108.911 85.754 108.496 85.488C108.08 85.222 107.541 85.089 106.879 85.089H104.912V88.26ZM118.701 83.43C118.22 84.3353 117.828 85.3247 117.525 86.398C117.221 87.4713 117.07 88.5633 117.07 89.674C117.07 90.724 117.2 91.746 117.462 92.74C117.723 93.734 118.103 94.756 118.603 95.806H117.567C117.184 95.148 116.848 94.5017 116.559 93.867C116.274 93.2277 116.052 92.565 115.894 91.879C115.74 91.193 115.663 90.4533 115.663 89.66C115.663 88.5027 115.847 87.392 116.216 86.328C116.589 85.2593 117.07 84.2933 117.658 83.43H118.701ZM123.643 83.738C124.306 83.738 124.899 83.8477 125.421 84.067C125.944 84.2817 126.357 84.5967 126.66 85.012C126.964 85.4227 127.115 85.9267 127.115 86.524C127.115 87.0653 126.968 87.5227 126.674 87.896C126.385 88.2647 126.012 88.547 125.554 88.743C125.89 88.8083 126.21 88.9647 126.513 89.212C126.821 89.4593 127.073 89.7627 127.269 90.122C127.47 90.4767 127.57 90.85 127.57 91.242C127.57 91.83 127.407 92.3433 127.08 92.782C126.758 93.216 126.303 93.5543 125.715 93.797C125.127 94.035 124.437 94.154 123.643 94.154C122.859 94.154 122.173 94.035 121.585 93.797C120.997 93.5543 120.54 93.216 120.213 92.782C119.891 92.3433 119.73 91.83 119.73 91.242C119.73 90.85 119.828 90.4767 120.024 90.122C120.22 89.7627 120.472 89.4593 120.78 89.212C121.088 88.9647 121.408 88.8083 121.739 88.743C121.291 88.547 120.918 88.2647 120.619 87.896C120.321 87.5227 120.171 87.0653 120.171 86.524C120.171 85.9267 120.323 85.4227 120.626 85.012C120.934 84.5967 121.35 84.2817 121.872 84.067C122.4 83.8477 122.99 83.738 123.643 83.738ZM123.643 88.127C124.222 88.127 124.691 87.9823 125.05 87.693C125.414 87.4037 125.596 87.0023 125.596 86.489C125.596 85.971 125.414 85.5627 125.05 85.264C124.686 84.9653 124.217 84.816 123.643 84.816C123.074 84.816 122.607 84.9677 122.243 85.271C121.879 85.5697 121.697 85.9757 121.697 86.489C121.697 87.0023 121.879 87.4037 122.243 87.693C122.607 87.9823 123.074 88.127 123.643 88.127ZM123.643 92.971C124.353 92.971 124.915 92.8123 125.33 92.495C125.75 92.173 125.96 91.7483 125.96 91.221C125.96 90.871 125.865 90.5607 125.673 90.29C125.487 90.0147 125.221 89.8 124.875 89.646C124.53 89.4873 124.119 89.408 123.643 89.408C123.177 89.408 122.771 89.4873 122.425 89.646C122.08 89.8 121.812 90.0147 121.62 90.29C121.434 90.5607 121.34 90.871 121.34 91.221C121.34 91.7483 121.548 92.173 121.963 92.495C122.383 92.8123 122.943 92.971 123.643 92.971ZM132.721 83.738C133.384 83.738 133.977 83.8477 134.499 84.067C135.022 84.2817 135.435 84.5967 135.738 85.012C136.042 85.4227 136.193 85.9267 136.193 86.524C136.193 87.0653 136.046 87.5227 135.752 87.896C135.463 88.2647 135.09 88.547 134.632 88.743C134.968 88.8083 135.288 88.9647 135.591 89.212C135.899 89.4593 136.151 89.7627 136.347 90.122C136.548 90.4767 136.648 90.85 136.648 91.242C136.648 91.83 136.485 92.3433 136.158 92.782C135.836 93.216 135.381 93.5543 134.793 93.797C134.205 94.035 133.515 94.154 132.721 94.154C131.937 94.154 131.251 94.035 130.663 93.797C130.075 93.5543 129.618 93.216 129.291 92.782C128.969 92.3433 128.808 91.83 128.808 91.242C128.808 90.85 128.906 90.4767 129.102 90.122C129.298 89.7627 129.55 89.4593 129.858 89.212C130.166 88.9647 130.486 88.8083 130.817 88.743C130.369 88.547 129.996 88.2647 129.697 87.896C129.399 87.5227 129.249 87.0653 129.249 86.524C129.249 85.9267 129.401 85.4227 129.704 85.012C130.012 84.5967 130.428 84.2817 130.95 84.067C131.478 83.8477 132.068 83.738 132.721 83.738ZM132.721 88.127C133.3 88.127 133.769 87.9823 134.128 87.693C134.492 87.4037 134.674 87.0023 134.674 86.489C134.674 85.971 134.492 85.5627 134.128 85.264C133.764 84.9653 133.295 84.816 132.721 84.816C132.152 84.816 131.685 84.9677 131.321 85.271C130.957 85.5697 130.775 85.9757 130.775 86.489C130.775 87.0023 130.957 87.4037 131.321 87.693C131.685 87.9823 132.152 88.127 132.721 88.127ZM132.721 92.971C133.431 92.971 133.993 92.8123 134.408 92.495C134.828 92.173 135.038 91.7483 135.038 91.221C135.038 90.871 134.943 90.5607 134.751 90.29C134.565 90.0147 134.299 89.8 133.953 89.646C133.608 89.4873 133.197 89.408 132.721 89.408C132.255 89.408 131.849 89.4873 131.503 89.646C131.158 89.8 130.89 90.0147 130.698 90.29C130.512 90.5607 130.418 90.871 130.418 91.221C130.418 91.7483 130.626 92.173 131.041 92.495C131.461 92.8123 132.021 92.971 132.721 92.971ZM140.475 83.724C140.937 83.724 141.35 83.8453 141.714 84.088C142.082 84.3307 142.372 84.6713 142.582 85.11C142.792 85.544 142.897 86.048 142.897 86.622C142.897 87.196 142.792 87.6977 142.582 88.127C142.376 88.5563 142.089 88.8923 141.721 89.135C141.357 89.373 140.941 89.492 140.475 89.492C140.008 89.492 139.59 89.373 139.222 89.135C138.853 88.8923 138.561 88.5563 138.347 88.127C138.137 87.6977 138.032 87.196 138.032 86.622C138.032 86.048 138.139 85.544 138.354 85.11C138.568 84.6713 138.86 84.3307 139.229 84.088C139.597 83.8453 140.013 83.724 140.475 83.724ZM140.461 88.68C140.89 88.68 141.214 88.4933 141.434 88.12C141.653 87.7467 141.763 87.2473 141.763 86.622C141.763 85.9873 141.651 85.481 141.427 85.103C141.203 84.7203 140.881 84.529 140.461 84.529C140.181 84.529 139.945 84.6177 139.754 84.795C139.562 84.9677 139.415 85.2127 139.313 85.53C139.21 85.8427 139.159 86.2067 139.159 86.622C139.159 87.2427 139.271 87.742 139.495 88.12C139.719 88.4933 140.041 88.68 140.461 88.68ZM146.894 88.358C147.36 88.358 147.776 88.4817 148.14 88.729C148.508 88.9763 148.798 89.317 149.008 89.751C149.218 90.185 149.323 90.6867 149.323 91.256C149.323 91.8347 149.218 92.341 149.008 92.775C148.802 93.2043 148.515 93.5403 148.147 93.783C147.783 94.021 147.365 94.14 146.894 94.14C146.427 94.14 146.007 94.021 145.634 93.783C145.265 93.5403 144.976 93.2043 144.766 92.775C144.556 92.341 144.451 91.8347 144.451 91.256C144.451 90.6867 144.556 90.185 144.766 89.751C144.98 89.317 145.272 88.9763 145.641 88.729C146.014 88.4817 146.432 88.358 146.894 88.358ZM146.88 93.314C147.155 93.314 147.391 93.2277 147.587 93.055C147.783 92.8823 147.932 92.6443 148.035 92.341C148.137 92.033 148.189 91.676 148.189 91.27C148.189 90.8547 148.135 90.4907 148.028 90.178C147.925 89.8653 147.776 89.6203 147.58 89.443C147.388 89.2657 147.155 89.177 146.88 89.177C146.609 89.177 146.376 89.2657 146.18 89.443C145.988 89.6203 145.841 89.8677 145.739 90.185C145.636 90.4977 145.585 90.8593 145.585 91.27C145.585 91.676 145.636 92.033 145.739 92.341C145.841 92.6443 145.988 92.8823 146.18 93.055C146.376 93.2277 146.609 93.314 146.88 93.314ZM147.475 83.766L140.671 94.056L139.705 94.042L146.537 83.766H147.475ZM150.332 83.43H151.375C151.963 84.2933 152.441 85.2593 152.81 86.328C153.183 87.392 153.37 88.5027 153.37 89.66C153.37 90.4533 153.29 91.193 153.132 91.879C152.978 92.565 152.756 93.2277 152.467 93.867C152.182 94.5017 151.848 95.148 151.466 95.806H150.43C150.929 94.756 151.309 93.734 151.571 92.74C151.832 91.746 151.963 90.724 151.963 89.674C151.963 88.5633 151.811 87.4713 151.508 86.398C151.204 85.3247 150.812 84.3353 150.332 83.43Z"
        fill="#011627" />
    <defs>
        <filter id="filter0_d_0_1" x="91" y="0" width="39" height="39" filterUnits="userSpaceOnUse"
            color-interpolation-filters="sRGB">
            <feFlood flood-opacity="0" result="BackgroundImageFix" />
            <feColorMatrix in="SourceAlpha" type="matrix"
                values="0 0 0 0 0 0 0 0 0 0 0 0 0 0 0 0 0 0 127 0" result="hardAlpha" />
            <feOffset dy="8" />
            <feGaussianBlur stdDeviation="4" />
            <feComposite in2="hardAlpha" operator="out" />
            <feColorMatrix type="matrix"
                values="0 0 0 0 0.0509804 0 0 0 0 0.0392157 0 0 0 0 0.172549 0 0 0 0.08 0" />
            <feBlend mode="normal" in2="BackgroundImageFix" result="effect1_dropShadow_0_1" />
            <feBlend mode="normal" in="SourceGraphic" in2="effect1_dropShadow_0_1" result="shape" />
        </filter>
    </defs>
</svg>
    