<svg width="24" height="24" viewBox="0 0 24 24" fill="none" xmlns="http://www.w3.org/2000/svg">
    <g clip-path="url(#clip0_1_180)">
        <path
            d="M10.3248 4.34021L2.30381 17.7307C2.13855 18.0171 2.05112 18.3417 2.05023 18.6724C2.04934 19.003 2.13501 19.3281 2.29872 19.6154C2.46244 19.9027 2.69849 20.1421 2.98342 20.3098C3.26835 20.4776 3.59223 20.5679 3.92285 20.5716H19.9657C20.2963 20.5679 20.6202 20.4776 20.9051 20.3098C21.1901 20.1421 21.4261 19.9027 21.5898 19.6154C21.7536 19.3281 21.8392 19.003 21.8383 18.6724C21.8374 18.3417 21.75 18.0171 21.5848 17.7307L13.5629 4.34021C13.3939 4.06211 13.1562 3.8322 12.8727 3.67265C12.5891 3.5131 12.2692 3.42929 11.9438 3.42929C11.6184 3.42929 11.2985 3.5131 11.015 3.67265C10.7314 3.8322 10.4937 4.06211 10.3248 4.34021Z"
            stroke="#002F6B" stroke-width="1.5" stroke-linecap="round" stroke-linejoin="round" />
        <path d="M12 9.14288V12.9524" stroke="#002F6B" stroke-width="1.5" stroke-linecap="round"
            stroke-linejoin="round" />
        <path d="M12 16.7621H12.0091" stroke="#002F6B" stroke-width="2" stroke-linecap="round"
            stroke-linejoin="round" />
    </g>
    <defs>
        <clipPath id="clip0_1_180">
            <rect width="22.8571" height="22.8571" fill="white"
                transform="translate(0.571426 0.571442)" />
        </clipPath>
    </defs>
</svg>
    